{
	"asset":{
		"generator":"Khronos glTF Blender I/O v4.0.44",
		"version":"2.0"
	},
	"scene":0,
	"scenes":[
		{
			"name":"Scene",
			"nodes":[
				0
			]
		}
	],
	"nodes":[
		{
			"mesh":0,
			"name":"BoomBox",
			"rotation":[
				0,
				1,
				0,
				0
			],
			"scale":[
				30,
				30,
				30
			]
		}
	],
	"materials":[
		{
			"emissiveFactor":[
				1,
				1,
				1
			],
			"emissiveTexture":{
				"index":0
			},
			"name":"BoomBox_Mat",
			"normalTexture":{
				"index":1
			},
			"occlusionTexture":{
				"index":2
			},
			"pbrMetallicRoughness":{
				"baseColorTexture":{
					"index":3
				},
				"metallicRoughnessTexture":{
					"index":2
				}
			}
		}
	],
	"meshes":[
		{
			"name":"BoomBox",
			"primitives":[
				{
					"attributes":{
						"POSITION":0,
						"NORMAL":1,
						"TEXCOORD_0":2
					},
					"indices":3,
					"material":0
				}
			]
		}
	],
	"textures":[
		{
			"sampler":0,
			"source":0
		},
		{
			"sampler":0,
			"source":1
		},
		{
			"sampler":0,
			"source":2
		},
		{
			"sampler":0,
			"source":3
		}
	],
	"images":[
		{
			"mimeType":"image/png",
			"name":"BoomBox_emissive",
			"uri":"BoomBox_emissive.png"
		},
		{
			"mimeType":"image/png",
			"name":"BoomBox_normal",
			"uri":"BoomBox_normal.png"
		},
		{
			"mimeType":"image/png",
			"name":"BoomBox_occlusionRoughnessMetallic",
			"uri":"BoomBox_occlusionRoughnessMetallic.png"
		},
		{
			"mimeType":"image/png",
			"name":"BoomBox_baseColor",
			"uri":"BoomBox_baseColor.png"
		}
	],
	"accessors":[
		{
			"bufferView":0,
			"componentType":5126,
			"count":3593,
			"max":[
				0.009921154007315636,
				0.00977163016796112,
				0.010076245293021202
			],
			"min":[
				-0.009921154007315636,
				-0.00977163016796112,
				-0.010076245293021202
			],
			"type":"VEC3"
		},
		{
			"bufferView":1,
			"componentType":5126,
			"count":3593,
			"type":"VEC3"
		},
		{
			"bufferView":2,
			"componentType":5126,
			"count":3593,
			"type":"VEC2"
		},
		{
			"bufferView":3,
			"componentType":5123,
			"count":18108,
			"type":"SCALAR"
		}
	],
	"bufferViews":[
		{
			"buffer":0,
			"byteLength":43116,
			"byteOffset":0,
			"target":34962
		},
		{
			"buffer":0,
			"byteLength":43116,
			"byteOffset":43116,
			"target":34962
		},
		{
			"buffer":0,
			"byteLength":28744,
			"byteOffset":86232,
			"target":34962
		},
		{
			"buffer":0,
			"byteLength":36216,
			"byteOffset":114976,
			"target":34963
		}
	],
	"samplers":[
		{
			"magFilter":9729,
			"minFilter":9987
		}
	],
	"buffers":[
		{
			"byteLength":151192,
			"uri":"BoomBox.bin"
		}
	]
}
