{
	"asset":{
		"generator":"Khronos glTF Blender I/O v4.0.44",
		"version":"2.0"
	},
	"scene":0,
	"scenes":[
		{
			"name":"Scene",
			"nodes":[
				5
			]
		}
	],
	"nodes":[
		{
			"mesh":0,
			"name":"Cerberus00_Fixed_08 - Default_0",
			"translation":[
				0,
				7.629395440744702e-06,
				0
			]
		},
		{
			"children":[
				0
			],
			"name":"Object_4",
			"translation":[
				2.2559845547220903e-06,
				93.72016906738281,
				4.096638804185204e-06
			]
		},
		{
			"children":[
				1
			],
			"name":"Cerberus00_Fixed",
			"rotation":[
				-0.70710688829422,
				0,
				0,
				0.7071066498756409
			]
		},
		{
			"children":[
				2
			],
			"name":"RootNode"
		},
		{
			"children":[
				3
			],
			"name":"5f99eff2796e438a94abd9cdecf2a893.fbx",
			"rotation":[
				0.70710688829422,
				0,
				0,
				0.7071066498756409
			]
		},
		{
			"children":[
				4
			],
			"name":"Sketchfab_model",
			"rotation":[
				-0.70710688829422,
				0,
				0,
				0.7071066498756409
			],
			"scale":[
				0.009999999776482582,
				0.010000000707805157,
				0.010000000707805157
			]
		}
	],
	"materials":[
		{
			"name":"08_-_Default",
			"normalTexture":{
				"index":0,
				"scale":0.4099999964237213
			},
			"occlusionTexture":{
				"index":1
			},
			"pbrMetallicRoughness":{
				"baseColorTexture":{
					"index":2
				},
				"metallicRoughnessTexture":{
					"index":3
				}
			}
		}
	],
	"meshes":[
		{
			"name":"Cerberus00_Fixed_08 - Default_0",
			"primitives":[
				{
					"attributes":{
						"POSITION":0,
						"NORMAL":1,
						"TEXCOORD_0":2
					},
					"indices":3,
					"material":0
				}
			]
		}
	],
	"textures":[
		{
			"sampler":0,
			"source":0
		},
		{
			"sampler":0,
			"source":1
		},
		{
			"sampler":0,
			"source":2
		},
		{
			"sampler":0,
			"source":3
		}
	],
	"images":[
		{
			"mimeType":"image/png",
			"name":"Cerberus_Normal",
			"uri":"Cerberus_Normal.png"
		},
		{
			"mimeType":"image/png",
			"name":"Cerberus_AO",
			"uri":"Cerberus_AO.png"
		},
		{
			"mimeType":"image/png",
			"name":"Cerberus_Albedo",
			"uri":"Cerberus_Albedo.png"
		},
		{
			"mimeType":"image/png",
			"name":"Cerberus_MetallicRoughness",
			"uri":"Cerberus_MetallicRoughness.png"
		}
	],
	"accessors":[
		{
			"bufferView":0,
			"componentType":5126,
			"count":27742,
			"max":[
				12.520315170288086,
				25.837120056152344,
				18.77880096435547
			],
			"min":[
				-19.99312400817871,
				-130.2689666748047,
				-47.20871353149414
			],
			"type":"VEC3"
		},
		{
			"bufferView":1,
			"componentType":5126,
			"count":27742,
			"type":"VEC3"
		},
		{
			"bufferView":2,
			"componentType":5126,
			"count":27742,
			"type":"VEC2"
		},
		{
			"bufferView":3,
			"componentType":5123,
			"count":100623,
			"type":"SCALAR"
		}
	],
	"bufferViews":[
		{
			"buffer":0,
			"byteLength":332904,
			"byteOffset":0,
			"target":34962
		},
		{
			"buffer":0,
			"byteLength":332904,
			"byteOffset":332904,
			"target":34962
		},
		{
			"buffer":0,
			"byteLength":221936,
			"byteOffset":665808,
			"target":34962
		},
		{
			"buffer":0,
			"byteLength":201246,
			"byteOffset":887744,
			"target":34963
		}
	],
	"samplers":[
		{
			"magFilter":9729,
			"minFilter":9987
		}
	],
	"buffers":[
		{
			"byteLength":1088992,
			"uri":"Cerberus.bin"
		}
	]
}
