{
	"asset":{
		"generator":"Khronos glTF Blender I/O v4.0.44",
		"version":"2.0"
	},
	"scene":0,
	"scenes":[
		{
			"name":"Scene",
			"nodes":[
				0
			]
		}
	],
	"nodes":[
		{
			"mesh":0,
			"name":"Corset",
			"rotation":[
				0,
				1,
				0,
				0
			],
			"scale":[
				20,
				20,
				20
			]
		}
	],
	"materials":[
		{
			"name":"Corset_O",
			"normalTexture":{
				"index":0
			},
			"occlusionTexture":{
				"index":1
			},
			"pbrMetallicRoughness":{
				"baseColorTexture":{
					"index":2
				},
				"metallicRoughnessTexture":{
					"index":1
				}
			}
		}
	],
	"meshes":[
		{
			"name":"pCube49",
			"primitives":[
				{
					"attributes":{
						"POSITION":0,
						"NORMAL":1,
						"TEXCOORD_0":2
					},
					"indices":3,
					"material":0
				}
			]
		}
	],
	"textures":[
		{
			"sampler":0,
			"source":0
		},
		{
			"sampler":0,
			"source":1
		},
		{
			"sampler":0,
			"source":2
		}
	],
	"images":[
		{
			"mimeType":"image/png",
			"name":"Corset_normal",
			"uri":"Corset_normal.png"
		},
		{
			"mimeType":"image/png",
			"name":"Corset_occlusionRoughnessMetallic",
			"uri":"Corset_occlusionRoughnessMetallic.png"
		},
		{
			"mimeType":"image/png",
			"name":"Corset_baseColor",
			"uri":"Corset_baseColor.png"
		}
	],
	"accessors":[
		{
			"bufferView":0,
			"componentType":5126,
			"count":11505,
			"max":[
				0.01947486400604248,
				0.057841528207063675,
				0.01947486400604248
			],
			"min":[
				-0.019474875181913376,
				0,
				-0.01947486773133278
			],
			"type":"VEC3"
		},
		{
			"bufferView":1,
			"componentType":5126,
			"count":11505,
			"type":"VEC3"
		},
		{
			"bufferView":2,
			"componentType":5126,
			"count":11505,
			"type":"VEC2"
		},
		{
			"bufferView":3,
			"componentType":5123,
			"count":54972,
			"type":"SCALAR"
		}
	],
	"bufferViews":[
		{
			"buffer":0,
			"byteLength":138060,
			"byteOffset":0,
			"target":34962
		},
		{
			"buffer":0,
			"byteLength":138060,
			"byteOffset":138060,
			"target":34962
		},
		{
			"buffer":0,
			"byteLength":92040,
			"byteOffset":276120,
			"target":34962
		},
		{
			"buffer":0,
			"byteLength":109944,
			"byteOffset":368160,
			"target":34963
		}
	],
	"samplers":[
		{
			"magFilter":9729,
			"minFilter":9987
		}
	],
	"buffers":[
		{
			"byteLength":478104,
			"uri":"Corset.bin"
		}
	]
}
