{
	"asset":{
		"generator":"Khronos glTF Blender I/O v4.0.44",
		"version":"2.0"
	},
	"scene":0,
	"scenes":[
		{
			"name":"Scene",
			"nodes":[
				2
			]
		}
	],
	"nodes":[
		{
			"mesh":0,
			"name":"Object_2",
			"translation":[
				0,
				-4.331258423917461e-06,
				0
			]
		},
		{
			"children":[
				0
			],
			"name":"eva3.obj.cleaner.materialmerger.gles",
			"translation":[
				0,
				-4.331258423917461e-06,
				0
			]
		},
		{
			"children":[
				1
			],
			"name":"Sketchfab_model",
			"rotation":[
				-0.5254827737808228,
				-0.4731467664241791,
				-0.47314685583114624,
				0.525482714176178
			],
			"scale":[
				0.009999999776482582,
				0.009999999776482582,
				0.009999999776482582
			],
			"translation":[
				2.359999895095825,
				-0.09999995678663254,
				-0.15000000596046448
			]
		}
	],
	"materials":[
		{
			"doubleSided":true,
			"name":"Material.001",
			"normalTexture":{
				"index":0
			},
			"pbrMetallicRoughness":{
				"baseColorTexture":{
					"index":1
				},
				"metallicRoughnessTexture":{
					"index":2
				}
			}
		}
	],
	"meshes":[
		{
			"name":"Object_0",
			"primitives":[
				{
					"attributes":{
						"POSITION":0,
						"NORMAL":1,
						"TEXCOORD_0":2
					},
					"indices":3,
					"material":0
				}
			]
		}
	],
	"textures":[
		{
			"sampler":0,
			"source":0
		},
		{
			"sampler":0,
			"source":1
		},
		{
			"sampler":0,
			"source":2
		}
	],
	"images":[
		{
			"mimeType":"image/png",
			"name":"Eva01_normal.png",
			"uri":"Eva01_normal.png"
		},
		{
			"mimeType":"image/jpeg",
			"name":"Eva01_baseColor.jpeg",
			"uri":"Eva01_baseColor.jpeg"
		},
		{
			"mimeType":"image/png",
			"name":"Eva01_metallicRoughness.png",
			"uri":"Eva01_metallicRoughness.png"
		}
	],
	"accessors":[
		{
			"bufferView":0,
			"componentType":5126,
			"count":35681,
			"max":[
				49.26966094970703,
				27.325397491455078,
				310.883544921875
			],
			"min":[
				-49.26966094970703,
				-99.878662109375,
				7.1674041748046875
			],
			"type":"VEC3"
		},
		{
			"bufferView":1,
			"componentType":5126,
			"count":35681,
			"type":"VEC3"
		},
		{
			"bufferView":2,
			"componentType":5126,
			"count":35681,
			"type":"VEC2"
		},
		{
			"bufferView":3,
			"componentType":5123,
			"count":181566,
			"type":"SCALAR"
		}
	],
	"bufferViews":[
		{
			"buffer":0,
			"byteLength":428172,
			"byteOffset":0,
			"target":34962
		},
		{
			"buffer":0,
			"byteLength":428172,
			"byteOffset":428172,
			"target":34962
		},
		{
			"buffer":0,
			"byteLength":285448,
			"byteOffset":856344,
			"target":34962
		},
		{
			"buffer":0,
			"byteLength":363132,
			"byteOffset":1141792,
			"target":34963
		}
	],
	"samplers":[
		{
			"magFilter":9729,
			"minFilter":9987
		}
	],
	"buffers":[
		{
			"byteLength":1504924,
			"uri":"Eva01.bin"
		}
	]
}
