{
	"asset":{
		"generator":"Khronos glTF Blender I/O v4.0.44",
		"version":"2.0"
	},
	"scene":0,
	"scenes":[
		{
			"name":"Scene",
			"nodes":[
				5
			]
		}
	],
	"nodes":[
		{
			"mesh":0,
			"name":"GlassPlastic_low"
		},
		{
			"mesh":1,
			"name":"LeatherParts_low",
			"translation":[
				0.0004344999906606972,
				0.03259299695491791,
				0.011676996015012264
			]
		},
		{
			"mesh":2,
			"name":"Lenses_low"
		},
		{
			"mesh":3,
			"name":"MetalParts_low",
			"translation":[
				0.03315449878573418,
				-0.1488645076751709,
				-0.0242879968136549
			]
		},
		{
			"mesh":4,
			"name":"RubberWood_low",
			"translation":[
				-0.0019084990490227938,
				-0.11198499798774719,
				-0.013313001953065395
			]
		},
		{
			"children":[
				0,
				1,
				2,
				3,
				4
			],
			"name":"FlightHelmet",
			"rotation":[
				0,
				1,
				0,
				0
			],
			"scale":[
				5,
				5,
				5
			],
			"translation":[
				0,
				0.7299999594688416,
				0
			]
		}
	],
	"materials":[
		{
			"name":"GlassPlasticMat",
			"normalTexture":{
				"index":0
			},
			"occlusionTexture":{
				"index":1
			},
			"pbrMetallicRoughness":{
				"baseColorTexture":{
					"index":2
				},
				"metallicRoughnessTexture":{
					"index":1
				}
			}
		},
		{
			"name":"LeatherPartsMat",
			"normalTexture":{
				"index":3
			},
			"occlusionTexture":{
				"index":4
			},
			"pbrMetallicRoughness":{
				"baseColorTexture":{
					"index":5
				},
				"metallicRoughnessTexture":{
					"index":4
				}
			}
		},
		{
			"alphaMode":"BLEND",
			"name":"LensesMat",
			"normalTexture":{
				"index":6
			},
			"occlusionTexture":{
				"index":7
			},
			"pbrMetallicRoughness":{
				"baseColorTexture":{
					"index":8
				},
				"metallicRoughnessTexture":{
					"index":7
				}
			}
		},
		{
			"name":"MetalPartsMat",
			"normalTexture":{
				"index":9
			},
			"occlusionTexture":{
				"index":10
			},
			"pbrMetallicRoughness":{
				"baseColorTexture":{
					"index":11
				},
				"metallicRoughnessTexture":{
					"index":10
				}
			}
		},
		{
			"doubleSided":true,
			"name":"RubberWoodMat",
			"normalTexture":{
				"index":12
			},
			"occlusionTexture":{
				"index":13
			},
			"pbrMetallicRoughness":{
				"baseColorTexture":{
					"index":14
				},
				"metallicRoughnessTexture":{
					"index":13
				}
			}
		}
	],
	"meshes":[
		{
			"name":"GlassPlastic_low",
			"primitives":[
				{
					"attributes":{
						"POSITION":0,
						"NORMAL":1,
						"TEXCOORD_0":2
					},
					"indices":3,
					"material":0
				}
			]
		},
		{
			"name":"LeatherParts_low",
			"primitives":[
				{
					"attributes":{
						"POSITION":4,
						"NORMAL":5,
						"TEXCOORD_0":6
					},
					"indices":7,
					"material":1
				}
			]
		},
		{
			"name":"Lenses_low",
			"primitives":[
				{
					"attributes":{
						"POSITION":8,
						"NORMAL":9,
						"TEXCOORD_0":10
					},
					"indices":11,
					"material":2
				}
			]
		},
		{
			"name":"MetalParts_low",
			"primitives":[
				{
					"attributes":{
						"POSITION":12,
						"NORMAL":13,
						"TEXCOORD_0":14
					},
					"indices":15,
					"material":3
				}
			]
		},
		{
			"name":"RubberWood_low",
			"primitives":[
				{
					"attributes":{
						"POSITION":16,
						"NORMAL":17,
						"TEXCOORD_0":18
					},
					"indices":19,
					"material":4
				}
			]
		}
	],
	"textures":[
		{
			"sampler":0,
			"source":0
		},
		{
			"sampler":0,
			"source":1
		},
		{
			"sampler":0,
			"source":2
		},
		{
			"sampler":0,
			"source":3
		},
		{
			"sampler":0,
			"source":4
		},
		{
			"sampler":0,
			"source":5
		},
		{
			"sampler":0,
			"source":6
		},
		{
			"sampler":0,
			"source":7
		},
		{
			"sampler":0,
			"source":8
		},
		{
			"sampler":0,
			"source":9
		},
		{
			"sampler":0,
			"source":10
		},
		{
			"sampler":0,
			"source":11
		},
		{
			"sampler":0,
			"source":12
		},
		{
			"sampler":0,
			"source":13
		},
		{
			"sampler":0,
			"source":14
		}
	],
	"images":[
		{
			"mimeType":"image/jpeg",
			"name":"FlightHelmet_normal.jpg",
			"uri":"FlightHelmet_normal.jpg"
		},
		{
			"mimeType":"image/jpeg",
			"name":"FlightHelmet_occlusionRoughnessMetallic.jpg",
			"uri":"FlightHelmet_occlusionRoughnessMetallic.jpg"
		},
		{
			"mimeType":"image/jpeg",
			"name":"FlightHelmet_baseColor.jpg",
			"uri":"FlightHelmet_baseColor.jpg"
		},
		{
			"mimeType":"image/jpeg",
			"name":"FlightHelmet_normal1.jpg",
			"uri":"FlightHelmet_normal1.jpg"
		},
		{
			"mimeType":"image/jpeg",
			"name":"FlightHelmet_occlusionRoughnessMetallic1.jpg",
			"uri":"FlightHelmet_occlusionRoughnessMetallic1.jpg"
		},
		{
			"mimeType":"image/jpeg",
			"name":"FlightHelmet_baseColor1.jpg",
			"uri":"FlightHelmet_baseColor1.jpg"
		},
		{
			"mimeType":"image/jpeg",
			"name":"FlightHelmet_normal2.jpg",
			"uri":"FlightHelmet_normal2.jpg"
		},
		{
			"mimeType":"image/jpeg",
			"name":"FlightHelmet_occlusionRoughnessMetallic2.jpg",
			"uri":"FlightHelmet_occlusionRoughnessMetallic2.jpg"
		},
		{
			"mimeType":"image/png",
			"name":"FlightHelmet_baseColor2.png",
			"uri":"FlightHelmet_baseColor2.png"
		},
		{
			"mimeType":"image/jpeg",
			"name":"FlightHelmet_normal3.jpg",
			"uri":"FlightHelmet_normal3.jpg"
		},
		{
			"mimeType":"image/jpeg",
			"name":"FlightHelmet_occlusionRoughnessMetallic3.jpg",
			"uri":"FlightHelmet_occlusionRoughnessMetallic3.jpg"
		},
		{
			"mimeType":"image/jpeg",
			"name":"FlightHelmet_baseColor3.jpg",
			"uri":"FlightHelmet_baseColor3.jpg"
		},
		{
			"mimeType":"image/jpeg",
			"name":"FlightHelmet_normal4.jpg",
			"uri":"FlightHelmet_normal4.jpg"
		},
		{
			"mimeType":"image/jpeg",
			"name":"FlightHelmet_occlusionRoughnessMetallic4.jpg",
			"uri":"FlightHelmet_occlusionRoughnessMetallic4.jpg"
		},
		{
			"mimeType":"image/jpeg",
			"name":"FlightHelmet_baseColor4.jpg",
			"uri":"FlightHelmet_baseColor4.jpg"
		}
	],
	"accessors":[
		{
			"bufferView":0,
			"componentType":5126,
			"count":7658,
			"max":[
				0.13166199624538422,
				0.13763898611068726,
				0.10078798979520798
			],
			"min":[
				-0.13133299350738525,
				-0.02812799997627735,
				-0.13776399195194244
			],
			"type":"VEC3"
		},
		{
			"bufferView":1,
			"componentType":5126,
			"count":7658,
			"type":"VEC3"
		},
		{
			"bufferView":2,
			"componentType":5126,
			"count":7658,
			"type":"VEC2"
		},
		{
			"bufferView":3,
			"componentType":5123,
			"count":24408,
			"type":"SCALAR"
		},
		{
			"bufferView":4,
			"componentType":5126,
			"count":12556,
			"max":[
				0.11722148954868317,
				0.19638797640800476,
				0.13242298364639282
			],
			"min":[
				-0.11722148954868317,
				-0.19638797640800476,
				-0.13242298364639282
			],
			"type":"VEC3"
		},
		{
			"bufferView":5,
			"componentType":5126,
			"count":12556,
			"type":"VEC3"
		},
		{
			"bufferView":6,
			"componentType":5126,
			"count":12556,
			"type":"VEC2"
		},
		{
			"bufferView":7,
			"componentType":5123,
			"count":65688,
			"type":"SCALAR"
		},
		{
			"bufferView":8,
			"componentType":5126,
			"count":438,
			"max":[
				0.09527508914470673,
				0.11465399712324142,
				-0.084294892847538
			],
			"min":[
				-0.0952748954296112,
				0.05514899641275406,
				-0.1429549902677536
			],
			"type":"VEC3"
		},
		{
			"bufferView":9,
			"componentType":5126,
			"count":438,
			"type":"VEC3"
		},
		{
			"bufferView":10,
			"componentType":5126,
			"count":438,
			"type":"VEC2"
		},
		{
			"bufferView":11,
			"componentType":5123,
			"count":2208,
			"type":"SCALAR"
		},
		{
			"bufferView":12,
			"componentType":5126,
			"count":16487,
			"max":[
				0.15720950067043304,
				0.27168649435043335,
				0.16218198835849762
			],
			"min":[
				-0.15720950067043304,
				-0.27168649435043335,
				-0.16218198835849762
			],
			"type":"VEC3"
		},
		{
			"bufferView":13,
			"componentType":5126,
			"count":16487,
			"type":"VEC3"
		},
		{
			"bufferView":14,
			"componentType":5126,
			"count":16487,
			"type":"VEC2"
		},
		{
			"bufferView":15,
			"componentType":5123,
			"count":60288,
			"type":"SCALAR"
		},
		{
			"bufferView":16,
			"componentType":5126,
			"count":24149,
			"max":[
				0.15040749311447144,
				0.3283669650554657,
				0.17367300391197205
			],
			"min":[
				-0.15040749311447144,
				-0.3283669650554657,
				-0.17367300391197205
			],
			"type":"VEC3"
		},
		{
			"bufferView":17,
			"componentType":5126,
			"count":24149,
			"type":"VEC3"
		},
		{
			"bufferView":18,
			"componentType":5126,
			"count":24149,
			"type":"VEC2"
		},
		{
			"bufferView":19,
			"componentType":5123,
			"count":131574,
			"type":"SCALAR"
		}
	],
	"bufferViews":[
		{
			"buffer":0,
			"byteLength":91896,
			"byteOffset":0,
			"target":34962
		},
		{
			"buffer":0,
			"byteLength":91896,
			"byteOffset":91896,
			"target":34962
		},
		{
			"buffer":0,
			"byteLength":61264,
			"byteOffset":183792,
			"target":34962
		},
		{
			"buffer":0,
			"byteLength":48816,
			"byteOffset":245056,
			"target":34963
		},
		{
			"buffer":0,
			"byteLength":150672,
			"byteOffset":293872,
			"target":34962
		},
		{
			"buffer":0,
			"byteLength":150672,
			"byteOffset":444544,
			"target":34962
		},
		{
			"buffer":0,
			"byteLength":100448,
			"byteOffset":595216,
			"target":34962
		},
		{
			"buffer":0,
			"byteLength":131376,
			"byteOffset":695664,
			"target":34963
		},
		{
			"buffer":0,
			"byteLength":5256,
			"byteOffset":827040,
			"target":34962
		},
		{
			"buffer":0,
			"byteLength":5256,
			"byteOffset":832296,
			"target":34962
		},
		{
			"buffer":0,
			"byteLength":3504,
			"byteOffset":837552,
			"target":34962
		},
		{
			"buffer":0,
			"byteLength":4416,
			"byteOffset":841056,
			"target":34963
		},
		{
			"buffer":0,
			"byteLength":197844,
			"byteOffset":845472,
			"target":34962
		},
		{
			"buffer":0,
			"byteLength":197844,
			"byteOffset":1043316,
			"target":34962
		},
		{
			"buffer":0,
			"byteLength":131896,
			"byteOffset":1241160,
			"target":34962
		},
		{
			"buffer":0,
			"byteLength":120576,
			"byteOffset":1373056,
			"target":34963
		},
		{
			"buffer":0,
			"byteLength":289788,
			"byteOffset":1493632,
			"target":34962
		},
		{
			"buffer":0,
			"byteLength":289788,
			"byteOffset":1783420,
			"target":34962
		},
		{
			"buffer":0,
			"byteLength":193192,
			"byteOffset":2073208,
			"target":34962
		},
		{
			"buffer":0,
			"byteLength":263148,
			"byteOffset":2266400,
			"target":34963
		}
	],
	"samplers":[
		{
			"magFilter":9729,
			"minFilter":9987
		}
	],
	"buffers":[
		{
			"byteLength":2529548,
			"uri":"FlightHelmet.bin"
		}
	]
}
